# xmcd
#
# Track frame offsets:
#	150
#	20582
#	33700
#	52707
#	67155
#	83447
#	93887
#	107722
#	120037
#	135575
#
# Disc length: 2015 seconds
#
# Revision: 1
# Processed by: cddbd v1.5.2PL0 Copyright (c) Steve Scherf et al.
# Submitted via: EZCDAudioConverter 6.0.5.1
#
DISCID=7207dd0a
DTITLE=Billy Burnette - Brother To Brother
DYEAR=1988
DGENRE=Country - Pop
TTITLE0=Brother To Brother
TTITLE1=Ain't It Just Like Love
TTITLE2=It Ain't Over
TTITLE3=Looks Like It's Gonna Rain Today
TTITLE4=Try Me
TTITLE5=I've Just Seen A Face
TTITLE6=Soldier Of Love
TTITLE7=Let's Take A Drive
TTITLE8=Guitar Bug
TTITLE9=Roll Over
EXTD=
EXTT0=
EXTT1=
EXTT2=
EXTT3=
EXTT4=
EXTT5=
EXTT6=
EXTT7=
EXTT8=
EXTT9=
PLAYORDER=
